<?xml version="1.0" ?><svg style="enable-background:new 0 0 512 512;" version="1.1" viewBox="0 0 512 512" xml:space="preserve" xmlns="http://www.w3.org/2000/svg" xmlns:xlink="http://www.w3.org/1999/xlink"><g id="_x31_9_x2C__medica_x2C__Health_x2C__healthcare_x2C__sign"><g id="XMLID_8588_"><path d="M256,70c104.93,0,190,85.07,190,190c0,104.93-85.07,190-190,190S66,364.93,66,260    C66,155.07,151.07,70,256,70z" id="XMLID_8658_" style="fill:#9BC9FF;"/><circle cx="441" cy="65" id="XMLID_1013_" r="35" style="fill:#FFFFFF;"/><path d="M71,415c13.81,0,25,11.19,25,25s-11.19,25-25,25s-25-11.19-25-25    S57.19,415,71,415z" id="XMLID_1012_" style="fill:#FFFFFF;"/><polygon id="XMLID_1011_" points="376,220 376,300 296,300 296,380 216,380 216,300 136,300 136,220     216,220 216,140 296,140 296,220   " style="fill:#FFFFFF;"/><circle cx="458.5" cy="167.5" id="XMLID_1010_" r="7.5" style="fill:#1E81CE;"/><circle cx="453.5" cy="437.5" id="XMLID_1009_" r="7.5" style="fill:#1E81CE;"/><circle cx="348.5" cy="42.5" id="XMLID_1008_" r="7.5" style="fill:#1E81CE;"/><circle cx="178.5" cy="462.5" id="XMLID_1007_" r="7.5" style="fill:#1E81CE;"/><circle cx="93.5" cy="42.5" id="XMLID_1006_" r="7.5" style="fill:#1E81CE;"/><circle cx="43.5" cy="355" id="XMLID_1005_" r="7.5" style="fill:#1E81CE;"/><path d="M256,455c-107.523,0-195-87.477-195-195S148.477,65,256,65s195,87.477,195,195    S363.523,455,256,455z M256,75C153.991,75,71,157.991,71,260c0,102.01,82.991,185,185,185s185-82.99,185-185    C441,157.991,358.009,75,256,75z" id="XMLID_8623_" style="fill:#1E81CE;"/><path d="M31,265c-2.761,0-5-2.238-5-5c0-61.433,23.925-119.19,67.367-162.633    S194.567,30,256,30c2.761,0,5,2.239,5,5s-2.239,5-5,5C134.691,40,36,138.691,36,260C36,262.762,33.761,265,31,265z" id="XMLID_1002_" style="fill:#1E81CE;"/><path d="M256,490c-2.761,0-5-2.238-5-5s2.239-5,5-5c121.309,0,220-98.691,220-220    c0-2.762,2.239-5,5-5s5,2.238,5,5c0,61.434-23.925,119.19-67.367,162.633S317.433,490,256,490z" id="XMLID_1001_" style="fill:#1E81CE;"/><path d="M296,385h-80c-2.761,0-5-2.238-5-5v-75h-75c-2.761,0-5-2.238-5-5v-80    c0-2.761,2.239-5,5-5h75v-75c0-2.761,2.239-5,5-5h80c2.761,0,5,2.239,5,5v75h75c2.761,0,5,2.239,5,5v80c0,2.762-2.239,5-5,5h-75    v75C301,382.762,298.761,385,296,385z M221,375h70v-75c0-2.762,2.239-5,5-5h75v-70h-75c-2.761,0-5-2.239-5-5v-75h-70v75    c0,2.761-2.239,5-5,5h-75v70h75c2.761,0,5,2.238,5,5V375z" id="XMLID_8609_" style="fill:#1E81CE;"/><path d="M441,105c-22.056,0-40-17.944-40-40s17.944-40,40-40s40,17.944,40,40    S463.056,105,441,105z M441,35c-16.542,0-30,13.458-30,30s13.458,30,30,30s30-13.458,30-30S457.542,35,441,35z" id="XMLID_8601_" style="fill:#1E81CE;"/><path d="M71,470c-16.542,0-30-13.458-30-30s13.458-30,30-30s30,13.458,30,30    S87.542,470,71,470z M71,420c-11.028,0-20,8.972-20,20s8.972,20,20,20s20-8.972,20-20S82.028,420,71,420z" id="XMLID_8590_" style="fill:#1E81CE;"/></g></g><g id="Layer_1"/></svg>